<svg width="270" height="270" viewBox="0 0 270 270" fill="none" xmlns="http://www.w3.org/2000/svg">
<g clip-path="url(#clip0_873_145)">
<rect width="270" height="270" rx="30" fill="#6877EB"/>
<path d="M0 0H270C270 168.5 0 168.5 0 168.5L0 0Z" fill="#7986EC"/>
<g filter="url(#filter0_d_873_145)">
<path d="M20.7794 234L27.7032 215.814H30.8988L37.8486 234H34.2243L32.7824 230.155H25.8326L24.4167 234H20.7794ZM26.9238 227.076H31.6652L29.8466 222.205C29.786 222.058 29.721 221.893 29.6518 221.711C29.5825 221.529 29.5175 221.348 29.4569 221.166C29.3963 220.975 29.3443 220.811 29.301 220.672C29.2577 220.811 29.2058 220.975 29.1451 221.166C29.0845 221.348 29.0196 221.529 28.9503 221.711C28.881 221.893 28.816 222.058 28.7554 222.205L26.9238 227.076ZM40.5254 234V215.814H48.8002C50.3157 215.814 51.5108 216.078 52.3855 216.606C53.2688 217.126 53.8967 217.814 54.2691 218.672C54.6501 219.529 54.8406 220.451 54.8406 221.438C54.8406 222.123 54.7064 222.815 54.4379 223.517C54.1781 224.218 53.7798 224.851 53.2428 225.413C52.7059 225.976 52.0304 226.392 51.2164 226.661L54.8017 234H51.0215L47.5791 227.115H43.8899V234H40.5254ZM43.8899 223.946H48.8521C49.4843 223.946 49.9823 223.829 50.346 223.595C50.7184 223.352 50.9825 223.041 51.1384 222.66C51.2943 222.278 51.3723 221.876 51.3723 221.451C51.3723 221.07 51.2986 220.689 51.1514 220.308C51.0042 219.927 50.7487 219.611 50.385 219.36C50.0213 219.109 49.5103 218.983 48.8521 218.983H43.8899V223.946ZM66.8034 234.312L62.1529 224.179C62.0923 224.049 62.0274 223.898 61.9581 223.725C61.8888 223.552 61.8282 223.378 61.7762 223.205C61.7849 223.344 61.7892 223.508 61.7892 223.699C61.7979 223.889 61.8022 224.058 61.8022 224.205V234H58.4377V215.814H61.8022L66.4137 226.128C66.5003 226.318 66.5783 226.509 66.6476 226.699C66.7255 226.881 66.7991 227.072 66.8684 227.271C66.9377 227.072 67.007 226.877 67.0762 226.686C67.1455 226.496 67.2191 226.31 67.2971 226.128L71.9995 215.814H75.1562V234H71.7917V224.179C71.7917 224.023 71.7917 223.85 71.7917 223.66C71.8004 223.469 71.8047 223.313 71.8047 223.192C71.7527 223.348 71.6878 223.517 71.6098 223.699C71.5406 223.872 71.4713 224.032 71.402 224.179L66.8034 234.312ZM79.42 234V215.814H91.7088V219.009H82.7845V223.01H88.0715V226.206H82.7845V230.778H92.2544V234H79.42ZM95.531 234V215.814H98.6746L105.845 226.518C105.94 226.674 106.062 226.886 106.209 227.154C106.365 227.414 106.495 227.652 106.599 227.869C106.573 227.678 106.551 227.449 106.534 227.18C106.525 226.903 106.521 226.682 106.521 226.518V215.814H109.872V234H106.871L99.5579 223.218C99.4627 223.071 99.3371 222.863 99.1812 222.595C99.034 222.326 98.9084 222.084 98.8045 221.867C98.8305 222.084 98.8478 222.317 98.8565 222.569C98.8651 222.82 98.8695 223.036 98.8695 223.218V234H95.531ZM114.128 234V215.814H117.493V234H114.128ZM120.185 234L127.109 215.814H130.305L137.254 234H133.63L132.188 230.155H125.238L123.822 234H120.185ZM126.33 227.076H131.071L129.252 222.205C129.192 222.058 129.127 221.893 129.058 221.711C128.988 221.529 128.923 221.348 128.863 221.166C128.802 220.975 128.75 220.811 128.707 220.672C128.664 220.811 128.612 220.975 128.551 221.166C128.49 221.348 128.425 221.529 128.356 221.711C128.287 221.893 128.222 222.058 128.161 222.205L126.33 227.076ZM154.006 234.312L149.355 224.179C149.294 224.049 149.229 223.898 149.16 223.725C149.091 223.552 149.03 223.378 148.978 223.205C148.987 223.344 148.991 223.508 148.991 223.699C149 223.889 149.004 224.058 149.004 224.205V234H145.64V215.814H149.004L153.616 226.128C153.702 226.318 153.78 226.509 153.85 226.699C153.928 226.881 154.001 227.072 154.07 227.271C154.14 227.072 154.209 226.877 154.278 226.686C154.348 226.496 154.421 226.31 154.499 226.128L159.202 215.814H162.358V234H158.994V224.179C158.994 224.023 158.994 223.85 158.994 223.66C159.002 223.469 159.007 223.313 159.007 223.192C158.955 223.348 158.89 223.517 158.812 223.699C158.743 223.872 158.673 224.032 158.604 224.179L154.006 234.312ZM173.807 234.312C172.352 234.312 171.118 234.039 170.105 233.493C169.091 232.939 168.273 232.207 167.65 231.298C167.035 230.38 166.584 229.367 166.299 228.258C166.013 227.15 165.87 226.033 165.87 224.907C165.87 223.781 166.013 222.664 166.299 221.555C166.584 220.447 167.035 219.438 167.65 218.529C168.273 217.611 169.091 216.879 170.105 216.333C171.118 215.779 172.352 215.502 173.807 215.502C175.262 215.502 176.492 215.779 177.496 216.333C178.509 216.879 179.323 217.611 179.938 218.529C180.562 219.438 181.012 220.447 181.289 221.555C181.575 222.664 181.718 223.781 181.718 224.907C181.718 226.033 181.575 227.15 181.289 228.258C181.012 229.367 180.562 230.38 179.938 231.298C179.323 232.207 178.509 232.939 177.496 233.493C176.492 234.039 175.262 234.312 173.807 234.312ZM173.807 231.077C174.621 231.077 175.309 230.887 175.872 230.506C176.444 230.125 176.903 229.627 177.249 229.012C177.596 228.397 177.847 227.73 178.003 227.011C178.159 226.284 178.237 225.582 178.237 224.907C178.237 224.179 178.159 223.452 178.003 222.724C177.856 221.988 177.609 221.322 177.262 220.724C176.925 220.118 176.47 219.633 175.898 219.269C175.335 218.897 174.638 218.71 173.807 218.71C172.967 218.71 172.261 218.901 171.69 219.282C171.127 219.663 170.672 220.165 170.326 220.789C169.988 221.404 169.741 222.075 169.585 222.802C169.438 223.521 169.364 224.223 169.364 224.907C169.364 225.626 169.438 226.349 169.585 227.076C169.741 227.804 169.992 228.47 170.339 229.077C170.694 229.683 171.153 230.168 171.715 230.532C172.287 230.895 172.984 231.077 173.807 231.077ZM185.219 234V215.814H191.351C192.927 215.814 194.269 216.073 195.378 216.593C196.486 217.104 197.383 217.797 198.067 218.672C198.76 219.538 199.262 220.512 199.574 221.594C199.894 222.668 200.054 223.772 200.054 224.907C200.054 225.946 199.903 226.998 199.6 228.063C199.305 229.129 198.82 230.112 198.145 231.012C197.469 231.904 196.564 232.627 195.43 233.182C194.304 233.727 192.91 234 191.247 234H185.219ZM188.584 230.804H191.598C192.524 230.804 193.304 230.631 193.936 230.285C194.568 229.93 195.075 229.466 195.456 228.895C195.845 228.315 196.127 227.678 196.3 226.985C196.482 226.284 196.573 225.591 196.573 224.907C196.573 224.179 196.482 223.465 196.3 222.763C196.118 222.062 195.837 221.425 195.456 220.854C195.075 220.282 194.59 219.828 194.001 219.49C193.412 219.152 192.706 218.983 191.883 218.983H188.584V230.804ZM210.757 234.312C209.233 234.312 207.93 234.03 206.847 233.467C205.773 232.896 204.951 232.069 204.379 230.986C203.816 229.904 203.535 228.596 203.535 227.063V215.814H206.899V227.063C206.899 228.44 207.207 229.453 207.821 230.103C208.436 230.752 209.415 231.077 210.757 231.077C211.606 231.077 212.316 230.943 212.888 230.674C213.459 230.406 213.888 229.977 214.174 229.388C214.459 228.791 214.602 228.016 214.602 227.063V215.814H217.98V227.063C217.98 228.345 217.789 229.445 217.408 230.363C217.036 231.281 216.516 232.034 215.849 232.623C215.191 233.203 214.425 233.632 213.55 233.909C212.675 234.178 211.745 234.312 210.757 234.312ZM222.16 234V215.814H225.525V230.739H234.319V234H222.16ZM236.876 234V215.814H249.165V219.009H240.24V223.01H245.527V226.206H240.24V230.778H249.71V234H236.876Z" fill="white"/>
<g filter="url(#filter1_d_873_145)">
<path d="M23.2059 204V181.04H27.4535V199.884H38.5563V204H23.2059ZM50.9188 204.394C49.082 204.394 47.524 204.049 46.2448 203.36C44.9656 202.661 43.9324 201.737 43.1452 200.589C42.3689 199.43 41.8004 198.151 41.4396 196.751C41.0788 195.352 40.8984 193.941 40.8984 192.52C40.8984 191.099 41.0788 189.688 41.4396 188.289C41.8004 186.889 42.3689 185.616 43.1452 184.468C43.9324 183.309 44.9656 182.385 46.2448 181.696C47.524 180.996 49.082 180.646 50.9188 180.646C52.7556 180.646 54.3081 180.996 55.5764 181.696C56.8556 182.385 57.8833 183.309 58.6596 184.468C59.4468 185.616 60.0153 186.889 60.3652 188.289C60.726 189.688 60.9064 191.099 60.9064 192.52C60.9064 193.941 60.726 195.352 60.3652 196.751C60.0153 198.151 59.4468 199.43 58.6596 200.589C57.8833 201.737 56.8556 202.661 55.5764 203.36C54.3081 204.049 52.7556 204.394 50.9188 204.394ZM50.9188 200.31C51.9465 200.31 52.8157 200.069 53.5264 199.588C54.248 199.107 54.8275 198.479 55.2648 197.702C55.7021 196.926 56.0192 196.084 56.216 195.177C56.4128 194.258 56.5112 193.373 56.5112 192.52C56.5112 191.602 56.4128 190.683 56.216 189.765C56.0301 188.835 55.7185 187.994 55.2812 187.239C54.8548 186.474 54.2808 185.862 53.5592 185.402C52.8485 184.932 51.9684 184.697 50.9188 184.697C49.8583 184.697 48.9672 184.938 48.2456 185.419C47.5349 185.9 46.9609 186.534 46.5236 187.321C46.0972 188.097 45.7856 188.945 45.5888 189.863C45.4029 190.771 45.31 191.656 45.31 192.52C45.31 193.427 45.4029 194.34 45.5888 195.259C45.7856 196.177 46.1027 197.019 46.54 197.784C46.9883 198.55 47.5677 199.162 48.2784 199.621C49 200.08 49.8801 200.31 50.9188 200.31ZM74.1963 204.361C72.4141 204.361 70.9053 204.016 69.6699 203.328C68.4453 202.639 67.4559 201.726 66.7015 200.589C65.958 199.441 65.4168 198.167 65.0779 196.768C64.7389 195.368 64.5695 193.952 64.5695 192.52C64.5695 191.164 64.7389 189.792 65.0779 188.404C65.4277 187.004 65.9799 185.719 66.7343 184.55C67.4996 183.369 68.4945 182.423 69.7191 181.712C70.9436 181.002 72.436 180.646 74.1963 180.646C75.6504 180.646 76.9132 180.892 77.9847 181.384C79.0561 181.865 79.9417 182.494 80.6415 183.27C81.3521 184.036 81.8933 184.839 82.2651 185.681L78.4603 187.452C78.0885 186.884 77.7059 186.397 77.3123 185.993C76.9187 185.577 76.4704 185.26 75.9675 185.042C75.4755 184.812 74.8851 184.697 74.1963 184.697C73.2123 184.697 72.3868 184.938 71.7199 185.419C71.0529 185.889 70.5172 186.512 70.1127 187.288C69.7081 188.065 69.4184 188.912 69.2435 189.83C69.0685 190.749 68.9811 191.645 68.9811 192.52C68.9811 193.449 69.0795 194.373 69.2763 195.292C69.4731 196.21 69.7847 197.046 70.2111 197.801C70.6375 198.555 71.1787 199.162 71.8347 199.621C72.4907 200.069 73.2779 200.294 74.1963 200.294C75.1803 200.294 76.0057 200.02 76.6727 199.474C77.3505 198.916 77.9519 198.205 78.4767 197.342L82.3635 198.801C81.8715 199.862 81.2537 200.813 80.5103 201.655C79.7668 202.497 78.8757 203.158 77.8371 203.639C76.7984 204.12 75.5848 204.361 74.1963 204.361ZM84.2167 204L92.9579 181.04H96.9923L105.766 204H101.191L99.3703 199.146H90.5963L88.8087 204H84.2167ZM91.9739 195.259H97.9599L95.6639 189.109C95.5873 188.923 95.5053 188.715 95.4179 188.486C95.3304 188.256 95.2484 188.026 95.1719 187.797C95.0953 187.556 95.0297 187.349 94.9751 187.174C94.9204 187.349 94.8548 187.556 94.7783 187.797C94.7017 188.026 94.6197 188.256 94.5323 188.486C94.4448 188.715 94.3628 188.923 94.2863 189.109L91.9739 195.259ZM109.146 204V181.04H113.393V199.884H124.496V204H109.146ZM127.724 204V181.04H131.971V204H127.724ZM136.313 204V200.818L148.269 185.058H137.035V181.04H153.894V184.222L141.857 199.982H153.894V204H136.313ZM156.671 204L165.413 181.04H169.447L178.221 204H173.645L171.825 199.146H163.051L161.263 204H156.671ZM164.429 195.259H170.415L168.119 189.109C168.042 188.923 167.96 188.715 167.873 188.486C167.785 188.256 167.703 188.026 167.627 187.797C167.55 187.556 167.484 187.349 167.43 187.174C167.375 187.349 167.309 187.556 167.233 187.797C167.156 188.026 167.074 188.256 166.987 188.486C166.899 188.715 166.817 188.923 166.741 189.109L164.429 195.259ZM183.448 204V185.124H176.937V181.04H194.239V185.124H187.695V204H183.448ZM198.096 204V181.04H202.344V204H198.096ZM216.809 204.394C214.972 204.394 213.414 204.049 212.135 203.36C210.855 202.661 209.822 201.737 209.035 200.589C208.259 199.43 207.69 198.151 207.329 196.751C206.969 195.352 206.788 193.941 206.788 192.52C206.788 191.099 206.969 189.688 207.329 188.289C207.69 186.889 208.259 185.616 209.035 184.468C209.822 183.309 210.855 182.385 212.135 181.696C213.414 180.996 214.972 180.646 216.809 180.646C218.645 180.646 220.198 180.996 221.466 181.696C222.745 182.385 223.773 183.309 224.549 184.468C225.337 185.616 225.905 186.889 226.255 188.289C226.616 189.688 226.796 191.099 226.796 192.52C226.796 193.941 226.616 195.352 226.255 196.751C225.905 198.151 225.337 199.43 224.549 200.589C223.773 201.737 222.745 202.661 221.466 203.36C220.198 204.049 218.645 204.394 216.809 204.394ZM216.809 200.31C217.836 200.31 218.706 200.069 219.416 199.588C220.138 199.107 220.717 198.479 221.155 197.702C221.592 196.926 221.909 196.084 222.106 195.177C222.303 194.258 222.401 193.373 222.401 192.52C222.401 191.602 222.303 190.683 222.106 189.765C221.92 188.835 221.608 187.994 221.171 187.239C220.745 186.474 220.171 185.862 219.449 185.402C218.738 184.932 217.858 184.697 216.809 184.697C215.748 184.697 214.857 184.938 214.135 185.419C213.425 185.9 212.851 186.534 212.413 187.321C211.987 188.097 211.675 188.945 211.479 189.863C211.293 190.771 211.2 191.656 211.2 192.52C211.2 193.427 211.293 194.34 211.479 195.259C211.675 196.177 211.992 197.019 212.43 197.784C212.878 198.55 213.458 199.162 214.168 199.621C214.89 200.08 215.77 200.31 216.809 200.31ZM231.217 204V181.04H235.186L244.238 194.554C244.359 194.75 244.512 195.018 244.698 195.357C244.894 195.685 245.058 195.986 245.19 196.259C245.157 196.019 245.129 195.729 245.108 195.39C245.097 195.04 245.091 194.761 245.091 194.554V181.04H249.322V204H245.534L236.301 190.388C236.181 190.202 236.022 189.94 235.825 189.601C235.639 189.262 235.481 188.956 235.35 188.682C235.382 188.956 235.404 189.251 235.415 189.568C235.426 189.885 235.432 190.158 235.432 190.388V204H231.217Z" fill="white"/>
</g>
</g>
<g filter="url(#filter2_bd_873_145)">
<path d="M135.238 31C108.211 31 86.2258 52.9878 86.2258 80.0121C86.2258 116.17 131.446 159.146 133.371 160.96C133.898 161.451 134.568 161.699 135.238 161.699C135.908 161.699 136.578 161.451 137.105 160.96C139.03 159.146 184.25 116.17 184.25 80.0121C184.25 52.9878 162.265 31 135.238 31ZM135.238 113.966C116.517 113.966 101.284 98.733 101.284 80.0119C101.284 61.2907 116.517 46.0584 135.238 46.0584C153.959 46.0584 169.192 61.2912 169.192 80.0121C169.192 98.733 153.959 113.966 135.238 113.966Z" fill="url(#paint0_linear_873_145)" shape-rendering="crispEdges"/>
</g>
<path d="M168.461 91.6798H103.011C107.775 105.222 120.627 114.925 135.736 114.925C150.846 114.925 163.697 105.222 168.461 91.6798Z" fill="#FE9810"/>
<path d="M101.033 80.0573C101.033 84.1329 101.731 88.0442 103.011 91.6798H168.461C169.74 88.0442 170.439 84.1329 170.439 80.0573C170.439 75.9817 169.741 72.0705 168.461 68.4348H103.011C101.732 72.0705 101.033 75.9817 101.033 80.0573Z" fill="#0053B5"/>
<path d="M103.011 68.4348H168.461C163.697 54.8931 150.845 45.1898 135.736 45.1898C120.626 45.1898 107.775 54.8931 103.011 68.4348Z" fill="#D80027"/>
<g filter="url(#filter3_bd_873_145)">
<path fill-rule="evenodd" clip-rule="evenodd" d="M165.618 124.292C164.908 124 164.008 124 162.208 124C160.409 124 159.509 124 158.799 124.292C157.853 124.681 157.101 125.427 156.709 126.366C156.53 126.795 156.46 127.294 156.432 128.021C156.392 129.09 155.84 130.079 154.906 130.614C153.973 131.149 152.833 131.129 151.88 130.629C151.232 130.289 150.762 130.1 150.298 130.039C149.283 129.907 148.255 130.18 147.443 130.799C146.833 131.263 146.383 132.036 145.483 133.583C144.583 135.13 144.134 135.903 144.033 136.659C143.9 137.667 144.175 138.687 144.798 139.493C145.083 139.861 145.483 140.171 146.104 140.558C147.017 141.127 147.604 142.097 147.604 143.167C147.604 144.236 147.017 145.206 146.104 145.775C145.483 146.162 145.083 146.472 144.798 146.84C144.175 147.646 143.899 148.666 144.033 149.674C144.133 150.43 144.583 151.203 145.483 152.75C146.383 154.297 146.833 155.07 147.442 155.534C148.255 156.153 149.282 156.426 150.298 156.294C150.762 156.233 151.232 156.044 151.88 155.704C152.833 155.204 153.973 155.184 154.906 155.719C155.84 156.254 156.392 157.243 156.432 158.312C156.46 159.04 156.53 159.538 156.709 159.967C157.101 160.906 157.853 161.652 158.799 162.042C159.509 162.333 160.409 162.333 162.208 162.333C164.008 162.333 164.908 162.333 165.618 162.042C166.564 161.652 167.316 160.906 167.708 159.967C167.887 159.538 167.957 159.04 167.984 158.312C168.025 157.243 168.577 156.254 169.51 155.719C170.444 155.184 171.584 155.204 172.536 155.704C173.185 156.044 173.655 156.233 174.119 156.294C175.134 156.426 176.161 156.153 176.974 155.534C177.584 155.07 178.033 154.297 178.933 152.75C179.833 151.203 180.283 150.43 180.383 149.674C180.517 148.666 180.242 147.646 179.618 146.84C179.334 146.472 178.934 146.162 178.313 145.775C177.4 145.206 176.813 144.236 176.813 143.166C176.813 142.097 177.4 141.127 178.313 140.558C178.934 140.171 179.334 139.862 179.618 139.493C180.242 138.687 180.517 137.667 180.384 136.66C180.283 135.904 179.833 135.13 178.934 133.583C178.034 132.037 177.584 131.263 176.974 130.799C176.162 130.18 175.134 129.907 174.119 130.04C173.655 130.1 173.185 130.289 172.537 130.629C171.584 131.129 170.444 131.149 169.511 130.614C168.577 130.079 168.025 129.09 167.984 128.021C167.957 127.294 167.887 126.795 167.708 126.366C167.316 125.427 166.564 124.681 165.618 124.292ZM162.208 148.917C165.408 148.917 168.002 146.342 168.002 143.167C168.002 139.991 165.408 137.417 162.208 137.417C159.009 137.417 156.415 139.991 156.415 143.167C156.415 146.342 159.009 148.917 162.208 148.917Z" fill="url(#paint1_linear_873_145)" fill-opacity="0.7" shape-rendering="crispEdges"/>
</g>
</g>
<defs>
<filter id="filter0_d_873_145" x="15.7794" y="175.646" width="258.931" height="83.6654" filterUnits="userSpaceOnUse" color-interpolation-filters="sRGB">
<feFlood flood-opacity="0" result="BackgroundImageFix"/>
<feColorMatrix in="SourceAlpha" type="matrix" values="0 0 0 0 0 0 0 0 0 0 0 0 0 0 0 0 0 0 127 0" result="hardAlpha"/>
<feOffset dx="10" dy="10"/>
<feGaussianBlur stdDeviation="7.5"/>
<feComposite in2="hardAlpha" operator="out"/>
<feColorMatrix type="matrix" values="0 0 0 0 0 0 0 0 0 0 0 0 0 0 0 0 0 0 0.25 0"/>
<feBlend mode="normal" in2="BackgroundImageFix" result="effect1_dropShadow_873_145"/>
<feBlend mode="normal" in="SourceGraphic" in2="effect1_dropShadow_873_145" result="shape"/>
</filter>
<filter id="filter1_d_873_145" x="16.1773" y="173.618" width="268.288" height="65.9186" filterUnits="userSpaceOnUse" color-interpolation-filters="sRGB">
<feFlood flood-opacity="0" result="BackgroundImageFix"/>
<feColorMatrix in="SourceAlpha" type="matrix" values="0 0 0 0 0 0 0 0 0 0 0 0 0 0 0 0 0 0 127 0" result="hardAlpha"/>
<feOffset dx="14.0571" dy="14.0571"/>
<feGaussianBlur stdDeviation="10.5429"/>
<feComposite in2="hardAlpha" operator="out"/>
<feColorMatrix type="matrix" values="0 0 0 0 0 0 0 0 0 0 0 0 0 0 0 0 0 0 0.25 0"/>
<feBlend mode="normal" in2="BackgroundImageFix" result="effect1_dropShadow_873_145"/>
<feBlend mode="normal" in="SourceGraphic" in2="effect1_dropShadow_873_145" result="shape"/>
</filter>
<filter id="filter2_bd_873_145" x="78.2258" y="23" width="118.024" height="150.699" filterUnits="userSpaceOnUse" color-interpolation-filters="sRGB">
<feFlood flood-opacity="0" result="BackgroundImageFix"/>
<feGaussianBlur in="BackgroundImageFix" stdDeviation="2"/>
<feComposite in2="SourceAlpha" operator="in" result="effect1_backgroundBlur_873_145"/>
<feColorMatrix in="SourceAlpha" type="matrix" values="0 0 0 0 0 0 0 0 0 0 0 0 0 0 0 0 0 0 127 0" result="hardAlpha"/>
<feOffset dx="2" dy="2"/>
<feGaussianBlur stdDeviation="5"/>
<feComposite in2="hardAlpha" operator="out"/>
<feColorMatrix type="matrix" values="0 0 0 0 0 0 0 0 0 0 0 0 0 0 0 0 0 0 0.1 0"/>
<feBlend mode="normal" in2="effect1_backgroundBlur_873_145" result="effect2_dropShadow_873_145"/>
<feBlend mode="normal" in="SourceGraphic" in2="effect2_dropShadow_873_145" result="shape"/>
</filter>
<filter id="filter3_bd_873_145" x="140" y="120" width="47.4167" height="49.3333" filterUnits="userSpaceOnUse" color-interpolation-filters="sRGB">
<feFlood flood-opacity="0" result="BackgroundImageFix"/>
<feGaussianBlur in="BackgroundImageFix" stdDeviation="2"/>
<feComposite in2="SourceAlpha" operator="in" result="effect1_backgroundBlur_873_145"/>
<feColorMatrix in="SourceAlpha" type="matrix" values="0 0 0 0 0 0 0 0 0 0 0 0 0 0 0 0 0 0 127 0" result="hardAlpha"/>
<feOffset dx="2" dy="2"/>
<feGaussianBlur stdDeviation="2.5"/>
<feComposite in2="hardAlpha" operator="out"/>
<feColorMatrix type="matrix" values="0 0 0 0 0 0 0 0 0 0 0 0 0 0 0 0 0 0 0.1 0"/>
<feBlend mode="normal" in2="effect1_backgroundBlur_873_145" result="effect2_dropShadow_873_145"/>
<feBlend mode="normal" in="SourceGraphic" in2="effect2_dropShadow_873_145" result="shape"/>
</filter>
<linearGradient id="paint0_linear_873_145" x1="135.238" y1="31" x2="135.238" y2="161.699" gradientUnits="userSpaceOnUse">
<stop stop-color="white"/>
<stop offset="1" stop-color="#D9D9D9" stop-opacity="0"/>
</linearGradient>
<linearGradient id="paint1_linear_873_145" x1="162.208" y1="124" x2="162.208" y2="162.333" gradientUnits="userSpaceOnUse">
<stop stop-color="#7986EC"/>
<stop offset="0.0001" stop-color="white"/>
<stop offset="1" stop-color="#7986EC" stop-opacity="0.18"/>
</linearGradient>
<clipPath id="clip0_873_145">
<rect width="270" height="270" rx="30" fill="white"/>
</clipPath>
</defs>
</svg>
